<?xml version="1.0" encoding="utf-8"?>
<!-- Generator: Adobe Illustrator 16.0.0, SVG Export Plug-In . SVG Version: 6.00 Build 0)  -->
<!DOCTYPE svg PUBLIC "-//W3C//DTD SVG 1.1//EN" "http://www.w3.org/Graphics/SVG/1.1/DTD/svg11.dtd">
<svg version="1.1" id="Layer_1" xmlns="http://www.w3.org/2000/svg" xmlns:xlink="http://www.w3.org/1999/xlink" x="0px" y="0px"
	 width="292px" height="128px" viewBox="0 0 292 128" enable-background="new 0 0 292 128" xml:space="preserve">
<path fill="#222966" stroke="#222966" stroke-width="6" stroke-miterlimit="10" d="M46.628,27h-28.7V16.64h69.86V27h-28.84v84
	h-12.32V27L46.628,27z"/>
<path fill="#222966" stroke="#222966" stroke-width="6" stroke-miterlimit="10" d="M132.916,92.6
	c-3.655,6.618-9.708,10.7-16.849,10.7c-12.04,0-20.58-11.2-20.58-26.04c0-12.88,6.3-26.32,20.86-26.32
	c13.667,0,19.562,12.828,20.234,23.895c4.558-0.425,8.775-0.106,12.662,1.519c-0.089-20.605-13.222-34.652-32.616-34.652
	c-18.76,0-33.6,13.3-33.6,35.98c0,21.42,14.14,34.859,32.48,34.859c9.491,0,19.303-3.675,25.884-11.633
	C139.176,97.432,136.35,94.496,132.916,92.6z"/>
<path fill="#222966" stroke="#222966" stroke-width="6" stroke-miterlimit="10" d="M235.208,27h-28.699V16.64h69.859V27h-28.84v84
	h-12.32V27L235.208,27z"/>
<g>
	<path fill="#DB6280" stroke="#DB6E80" stroke-width="6" stroke-miterlimit="10" d="M163.107,98.4
		c3.64,2.379,10.08,4.899,16.24,4.899c8.96,0,13.159-4.479,13.159-10.08c0-5.88-3.5-9.1-12.6-12.46
		c-12.18-4.34-17.92-11.06-17.92-19.18c0-10.92,8.82-19.88,23.38-19.88c6.859,0,12.88,1.96,16.659,4.2l-3.08,8.96
		c-2.659-1.68-7.56-3.92-13.859-3.92c-7.279,0-11.34,4.2-11.34,9.24c0,5.599,4.061,8.12,12.88,11.48
		c11.761,4.48,17.779,10.359,17.779,20.439c0,11.9-9.239,20.301-25.339,20.301c-7.42,0-14.28-1.82-19.04-4.621L163.107,98.4z"/>
	<path fill="#DB6E80" d="M61.068,83.063v13.313c0,0,50.839-34.625,95.469,12.72l5-15.25
		C161.537,93.844,120.068,53.313,61.068,83.063z"/>
</g>
<g>
	<g>
		<path fill="#FFFFFF" d="M155.132,111.5c1.935,0,1.935-3,0-3C153.196,108.5,153.196,111.5,155.132,111.5L155.132,111.5z"/>
	</g>
</g>
<g>
	<g>
		<path fill="#FFFFFF" d="M155.193,111.75c1.935,0,1.935-3,0-3S153.259,111.75,155.193,111.75L155.193,111.75z"/>
	</g>
</g>
<g>
	<g>
		<path fill="#FFFFFF" d="M155.568,111.75c1.935,0,1.935-3,0-3S153.634,111.75,155.568,111.75L155.568,111.75z"/>
	</g>
</g>
<path fill="#222966" stroke="#222966" stroke-width="6" stroke-miterlimit="10" d="M136.581,74.835
	c0.044,0.724,0.066,1.44,0.066,2.146c0,5.994-1.366,11.336-3.731,15.619c3.435,1.896,6.26,4.832,8.477,8.308
	c4.776-5.777,7.854-13.808,7.854-24.347c0-0.07-0.004-0.139-0.004-0.209C145.356,74.729,141.138,74.41,136.581,74.835z"/>
</svg>
